<svg width="278" height="260" viewBox="0 0 278 260" fill="none" xmlns="http://www.w3.org/2000/svg">
<path d="M85.5427 235.849L8.4503 90.0767C4.98606 83.5263 4.18524 77.0555 5.65682 71.4705C5.69433 71.3281 5.73333 71.1863 5.7738 71.0451C8.04759 63.1096 14.9646 57.0341 25.3751 55.1885L31.2312 54.1504L85.4411 44.5401L187.127 93.4778L247.259 207.18C247.643 207.906 247.994 208.631 248.313 209.355C251.296 216.114 251.466 222.693 249.256 228.192C248.956 228.939 248.612 229.666 248.225 230.371C245.01 236.231 238.837 240.561 230.334 242.068L133.304 259.269C115.442 262.436 94.058 251.95 85.5427 235.849Z" fill="#1D1D1D"/>
<path d="M25.3751 55.1885L31.2312 54.1504L14.9267 37.7578L5.7738 71.0451C8.04759 63.1096 14.9646 57.0341 25.3751 55.1885Z" fill="#1D1D1D"/>
<path d="M248.313 209.355C251.296 216.114 251.466 222.693 249.256 228.192L262.972 201.067L248.313 209.355Z" fill="#1D1D1D"/>
<path d="M96.4906 207.184L19.3982 61.4122C10.8828 45.3107 18.4603 29.6907 36.323 26.5241L96.389 15.8756L198.075 64.8133L258.207 178.516C266.722 194.617 259.145 210.237 241.282 213.404L144.252 230.605C126.39 233.772 105.006 223.286 96.4906 207.184Z" fill="#F5F5F5"/>
<path d="M260.902 178.03C270.127 195.474 261.918 212.395 242.567 215.826L145.538 233.027C126.186 236.458 103.021 225.098 93.7957 207.655L16.7033 61.8828C7.47834 44.4394 15.6873 27.5178 35.0385 24.0873L96.2085 13.2431L97.354 13.7978L199.04 62.7333L200.232 63.3108L260.902 178.03ZM116.042 47.4588C123.848 62.2181 143.45 71.8296 159.824 68.9277L190.188 63.5448L102.14 21.1705L116.042 47.4588ZM99.1862 206.699C106.992 221.459 126.594 231.071 142.968 228.168L239.997 210.967C256.372 208.064 263.318 193.746 255.512 178.986L196.664 67.7115L162.394 73.7868C143.043 77.2165 119.877 65.8573 110.652 48.4144L94.9775 18.776L37.6082 28.9463C21.2341 31.8491 14.2881 46.1674 22.0939 60.9272L99.1862 206.699Z" fill="#1D1D1D"/>
<ellipse cx="32.8458" cy="32.9763" rx="32.8458" ry="32.9763" transform="matrix(0.984698 -0.174566 0.467562 0.884102 71.7975 115.903)" fill="#FF4343"/>
<rect width="87.5889" height="65.9526" transform="matrix(0.984698 -0.174566 0.467562 0.884102 119.559 139.324)" fill="#2CA48C"/>
<path d="M186.062 164.732L174.218 97.7419L203.489 108.497L186.062 164.732Z" fill="#C833D5"/>
</svg>
