<svg width="1743" height="305" viewBox="0 0 1743 305" fill="none" xmlns="http://www.w3.org/2000/svg">
<path d="M85.5427 245.849L8.4503 100.077C4.98606 93.5263 4.18524 87.0555 5.65682 81.4705C5.69433 81.3281 5.73333 81.1863 5.7738 81.0451C8.04759 73.1096 14.9646 67.0341 25.3751 65.1885L31.2312 64.1504L85.4411 54.5401L187.127 103.478L247.259 217.18C247.643 217.906 247.994 218.631 248.313 219.355C251.296 226.114 251.466 232.693 249.256 238.192C248.956 238.939 248.612 239.666 248.225 240.371C245.01 246.231 238.837 250.561 230.334 252.068L133.304 269.269C115.442 272.436 94.058 261.95 85.5427 245.849Z" fill="#1D1D1D"/>
<path d="M25.3751 65.1885L31.2312 64.1504L14.9267 47.7578L5.7738 81.0451C8.04759 73.1096 14.9646 67.0341 25.3751 65.1885Z" fill="#1D1D1D"/>
<path d="M248.313 219.355C251.296 226.114 251.466 232.693 249.256 238.192L262.972 211.067L248.313 219.355Z" fill="#1D1D1D"/>
<path d="M96.4906 217.184L19.3982 71.4122C10.8828 55.3107 18.4603 39.6907 36.323 36.5241L96.389 25.8756L198.075 74.8133L258.207 188.516C266.722 204.617 259.145 220.237 241.282 223.404L144.252 240.605C126.39 243.772 105.006 233.286 96.4906 217.184Z" fill="#F5F5F5"/>
<path d="M260.902 188.03C270.127 205.474 261.918 222.395 242.567 225.826L145.538 243.027C126.186 246.458 103.021 235.098 93.7957 217.655L16.7033 71.8828C7.47834 54.4394 15.6873 37.5178 35.0385 34.0873L96.2085 23.2431L97.354 23.7978L199.04 72.7333L200.232 73.3108L260.902 188.03ZM116.042 57.4588C123.848 72.2181 143.45 81.8296 159.824 78.9277L190.188 73.5448L102.14 31.1705L116.042 57.4588ZM99.1862 216.699C106.992 231.459 126.594 241.071 142.968 238.168L239.997 220.967C256.372 218.064 263.318 203.746 255.512 188.986L196.664 77.7115L162.394 83.7868C143.043 87.2165 119.877 75.8573 110.652 58.4144L94.9775 28.776L37.6082 38.9463C21.2341 41.8491 14.2881 56.1674 22.0939 70.9272L99.1862 216.699Z" fill="#1D1D1D"/>
<ellipse cx="32.8458" cy="32.9763" rx="32.8458" ry="32.9763" transform="matrix(0.984698 -0.174566 0.467562 0.884102 71.7975 125.903)" fill="#FF4343"/>
<rect width="87.5889" height="65.9526" transform="matrix(0.984698 -0.174566 0.467562 0.884102 119.559 149.324)" fill="#2CA48C"/>
<path d="M186.062 174.732L174.218 107.742L203.489 118.497L186.062 174.732Z" fill="#C833D5"/>
<path fill-rule="evenodd" clip-rule="evenodd" d="M1260.36 100.523L1264.25 99.3284L1264.03 97.9387L1267.98 96.7221L1267.76 95.3323L1271.7 94.1158L1271.49 92.7216L1275.43 91.505L1275.21 90.1153L1279.16 88.8987L1278.94 87.509L1282.89 86.2924L1282.67 84.8982L1286.61 83.6817L1286.4 82.2919L1290.34 81.0754L1290.13 79.6856L1294.07 78.4691L1293.85 77.0749L1301.4 74.7527C1305.33 73.5453 1310.32 72.3958 1316.26 71.2806L1322.52 70.175C1331.83 68.4765 1341.41 67.6311 1351.22 67.6309C1367.74 67.6309 1381.79 70.0394 1392.6 75.6452C1402.13 80.5921 1409.38 87.6738 1414.02 96.8153V96.7487L1417.75 95.6698V94.138L1421.47 93.059V91.5317L1425.2 90.4527V88.9254L1428.93 87.8464V86.3146L1432.66 85.2357V83.7083L1436.39 82.6294V81.102L1440.11 80.0231V78.4913L1446.69 76.5909C1453.13 74.7314 1461 73.0744 1470.23 71.587L1474.27 70.9565C1485.53 69.092 1497.3 68.1683 1509.56 68.1682C1526.53 68.1682 1540.98 71.0492 1551.95 77.7986C1551.97 77.8055 1551.98 77.8138 1551.99 77.8208C1552.02 77.8359 1552.05 77.8501 1552.07 77.8652C1562.74 84.2858 1570.36 93.4119 1574.67 105.016C1575.94 108.447 1577 112.026 1577.86 115.748C1581.7 111.578 1586.06 107.902 1590.92 104.727C1592.13 103.824 1593.37 102.955 1594.65 102.121C1595.84 101.228 1597.07 100.367 1598.33 99.5415C1599.56 98.6229 1600.82 97.7381 1602.12 96.8908C1603.33 95.9847 1604.58 95.1121 1605.86 94.2756C1607.05 93.3907 1608.26 92.5367 1609.52 91.7181C1610.74 90.8031 1612 89.925 1613.29 89.0808C1614.5 88.1774 1615.74 87.3087 1617.02 86.4745C1618.22 85.5769 1619.45 84.7107 1620.72 83.8815C1623.69 81.6604 1626.86 79.6409 1630.25 77.8386C1642.62 71.2564 1657.09 68.1686 1673.32 68.1682C1683.35 68.1682 1693.87 69.0212 1704.87 70.6945C1715.72 72.3467 1725.06 74.3059 1732.78 76.6176L1739.27 78.5579V204.153C1739.27 228.641 1732.99 248.577 1718.72 262.029C1716.01 264.642 1713.06 266.966 1709.87 269.022C1708.65 269.949 1707.39 270.829 1706.09 271.664C1704.89 272.573 1703.66 273.44 1702.38 274.262C1701.19 275.166 1699.95 276.024 1698.69 276.841C1697.47 277.764 1696.22 278.641 1694.92 279.474C1693.72 280.388 1692.47 281.256 1691.19 282.081C1689.99 282.99 1688.76 283.86 1687.48 284.682C1686.27 285.6 1685.03 286.474 1683.74 287.302C1682.54 288.215 1681.29 289.084 1680.01 289.908C1666.19 300.386 1647.22 305 1624.42 305C1615.23 305 1606.04 304.139 1596.88 302.425C1587.9 300.922 1579.47 298.847 1571.64 296.178L1564.03 293.585L1574.88 241.503L1577.82 242.675L1578.61 238.897L1581.55 240.069L1582.34 236.29L1585.28 237.463L1586.07 233.68L1587.82 234.377C1585.26 232.71 1582.86 230.868 1580.62 228.858V230.989H1576.9V233.6H1573.17V236.206H1569.44V238.812H1565.71V241.423H1561.99V244.029H1558.26V246.636H1554.53V249.247H1550.8V251.853H1547.07V254.459H1488.73V236.206H1487.28V238.812H1483.55V241.423H1479.82V244.029H1476.1V246.636H1472.37V249.247H1468.64V251.853H1464.91V254.459H1406.56V235.735L1403.38 236.433V238.226L1399.65 239.039V240.833L1395.93 241.645V243.443L1392.2 244.256V246.05L1388.47 246.862V248.656L1381.31 250.219C1375.3 251.529 1367.11 252.996 1356.81 254.619L1356.8 254.615C1345.92 256.507 1333.02 257.416 1318.21 257.416C1305.31 257.416 1293.67 255.907 1283.43 252.701L1283.28 252.648C1275.83 250.171 1269.33 246.532 1263.94 241.672L1260.89 241.601L1260.43 244.291L1257.16 244.211L1256.7 246.898L1253.43 246.818L1252.98 249.504L1249.71 249.424L1249.25 252.115L1245.98 252.035L1245.52 254.721L1242.25 254.641L1241.79 257.327L1233.93 257.145C1217.96 256.775 1204.62 254.558 1194.66 249.806L1194.62 249.793L1194.59 249.775C1186.87 246.01 1180.68 240.791 1176.43 234.062V236.206H1172.7V238.812H1168.97V241.423H1165.24V244.029H1161.52V246.636H1157.79V249.247H1154.06V251.853H1150.33V254.459H1091.99V236.206H1090.53V238.812H1086.81V241.423H1083.08V244.029H1079.35V246.636H1075.62V249.247H1071.9V251.853H1068.17V254.459H1009.82V241.108L1009.47 241.259L1009.64 242.227L1005.74 243.865L1005.91 244.833L1002.01 246.471L1002.18 247.439L995.525 250.246C990.129 252.524 983.669 254.379 976.295 255.889C968.594 257.465 960.248 258.224 951.3 258.224C932.953 258.224 917.078 254.7 904.289 246.96L904.258 246.942L904.231 246.924C898.584 243.449 893.583 239.401 889.241 234.799L887.445 235.527L887.632 236.544L883.721 238.133L883.908 239.15L879.992 240.739L880.179 241.761L876.264 243.35L876.45 244.367L872.535 245.956L872.722 246.973L865.882 249.757C860.552 251.924 854.721 253.757 848.425 255.281C841.575 256.937 833.532 257.687 824.462 257.687C809.028 257.687 795.753 255.049 785.521 248.834L785.419 248.776L785.321 248.709C776.923 243.308 770.639 236.066 766.557 227.166L762.775 229.058L762.891 229.746L759.047 231.664L759.162 232.357L755.318 234.275L755.433 234.963L751.594 236.877L751.709 237.569L747.865 239.487L747.98 240.18L744.136 242.098L744.252 242.786L740.407 244.704L740.523 245.393L734.51 248.394C729.02 251.133 721.074 253.283 711.386 255.107L711.382 255.103C701.454 257.184 691.191 258.224 680.606 258.224C662.445 258.224 646.644 254.796 633.741 247.32L633.688 247.284C631.942 246.256 630.261 245.166 628.634 244.029H625.11L626.457 246.636H621.381L622.728 249.247H617.653L618.999 251.853H613.924L615.271 254.459H549.118L546.465 250.05C543.909 245.799 540.995 241.186 537.727 236.206H537.514V238.812H533.785V241.423H530.057V244.029H526.332V246.636H522.603V249.247H518.875V251.853H515.146V254.459H456.802V223.827C455.727 224.636 454.609 225.4 453.455 226.132C452.264 227.046 451.025 227.915 449.736 228.733C448.554 229.641 447.325 230.501 446.047 231.313C444.845 232.238 443.593 233.115 442.291 233.942C441.092 234.863 439.844 235.738 438.545 236.561C437.359 237.472 436.126 238.335 434.843 239.15C433.643 240.072 432.396 240.95 431.096 241.774C429.901 242.692 428.657 243.56 427.363 244.38C422.773 247.904 417.45 250.712 411.506 252.847C401.256 256.529 389.19 258.224 375.557 258.224C362.53 258.224 351.21 257.117 341.789 254.717L341.74 254.703C333.481 252.553 327.084 250.604 323.101 248.838L316.395 245.863L326.808 195.575L329.754 196.734L330.536 192.969L333.483 194.128L334.265 190.363L337.212 191.521L337.994 187.752L340.936 188.911L341.718 185.146L343.745 185.94C337.188 181.846 331.838 176.643 327.927 170.276L327.892 170.223L327.861 170.169C323.358 162.601 321.466 153.404 321.466 143.209C321.466 132.669 324.13 123.124 329.896 115.068C333.579 109.805 338.222 105.454 343.691 101.961C344.886 101.042 346.131 100.174 347.42 99.3506C348.613 98.4328 349.858 97.5704 351.144 96.7487C352.339 95.8289 353.584 94.9612 354.873 94.138C356.067 93.2188 357.314 92.3544 358.602 91.5317C359.782 90.6236 361.01 89.7659 362.282 88.952C363.491 88.0194 364.754 87.1438 366.059 86.3102C367.258 85.3879 368.508 84.5201 369.801 83.695C370.99 82.7808 372.23 81.9207 373.512 81.102C377.366 78.1356 381.715 75.6713 386.507 73.696C396.146 69.5447 407.268 67.6312 419.612 67.6309C428.731 67.6309 437.54 68.4813 446.02 70.1973C449.907 70.9024 453.51 71.6677 456.802 72.4972V35.4539L460.531 34.8545V32.8476L464.259 32.2482V30.2413L467.988 29.6419V27.6305L471.712 27.0311V25.0242L475.441 24.4248V22.4179L479.17 21.8185V19.8072L482.899 19.2078V17.2009L486.627 16.6015V14.5946L490.352 13.9952V11.9838L548.696 2.60645V94.0847L550.202 92.2598H551.78L553.931 89.6535H555.504L557.66 87.0428H559.233L561.384 84.4365H562.962L565.113 81.8302H566.686L568.841 79.2194H570.419L572.57 76.6131H574.148L576.299 74.0068H577.868L580.023 71.3961H652.073L638.847 86.4789C632.54 93.6716 626.32 100.689 620.19 107.525C614.026 114.4 607.678 121.27 601.156 128.14L601.16 128.144C596.77 132.776 592.162 137.529 587.347 142.41C590.834 145.912 594.361 149.727 597.929 153.843C598.117 154.06 598.302 154.279 598.489 154.496C600.23 145.313 603.203 136.947 607.538 129.498L607.564 129.459C613.908 118.681 621.889 110.018 631.545 103.706C632.758 102.795 634.004 101.93 635.274 101.1C636.477 100.196 637.712 99.3359 638.972 98.5114C640.198 97.5887 641.455 96.7094 642.741 95.8696C643.956 94.9566 645.205 94.0905 646.478 93.2588C647.668 92.3652 648.89 91.5171 650.136 90.7014C651.363 89.7768 652.626 88.901 653.913 88.0595C655.13 87.1452 656.376 86.2727 657.651 85.4399C658.85 84.539 660.084 83.6864 661.34 82.8647C664.06 80.8175 666.926 78.9723 669.939 77.3368C681.638 70.9062 694.085 67.6312 707.151 67.6309C721.833 67.6311 735.007 70.6596 746.314 77.106C751.141 79.7818 755.476 83.0249 759.327 86.7941V60.993L763.055 60.3936V58.3867L766.784 57.7873V55.7804L770.513 55.181V53.1697L774.237 52.5703V50.5634L777.966 49.964V47.9571L781.694 47.3577V45.3463L785.423 44.7469V42.74L789.152 42.1406V40.1337L792.876 39.5343V37.523L851.22 28.1456V71.3961H899.445V107.463C901.036 106.236 902.68 105.063 904.383 103.946C905.586 103.055 906.815 102.188 908.08 101.357C909.287 100.463 910.523 99.5979 911.791 98.7645C913.01 97.8605 914.256 96.9821 915.538 96.1404C916.759 95.235 918.008 94.3549 919.293 93.5119C920.49 92.6256 921.715 91.7674 922.973 90.9411C924.191 90.0371 925.438 89.1588 926.719 88.3171C927.932 87.4183 929.173 86.5479 930.448 85.7108C931.655 84.8164 932.891 83.9511 934.159 83.1178C936.014 81.7418 937.935 80.4287 939.937 79.1972C952.573 71.3526 967.407 67.6313 984.041 67.6309C992.059 67.6309 999.583 68.3874 1006.56 69.9575C1007.65 70.1748 1008.74 70.4118 1009.82 70.6635V35.4539L1013.55 34.8545V32.8476L1017.28 32.2482V30.2413L1021 29.6419V27.6305L1024.73 27.0311V25.0242L1028.46 24.4248V22.4179L1032.19 21.8185V19.8072L1035.91 19.2078V17.2009L1039.64 16.6015V14.5946L1043.37 13.9952V11.9838L1101.72 2.60645V69.5623C1106.32 68.6491 1110.83 68.1683 1115.24 68.1682C1131.61 68.1683 1145.62 71.0855 1156.28 77.954C1160.98 80.8987 1165.04 84.4042 1168.46 88.4325V35.4539L1172.19 34.8545V32.8476L1175.92 32.2482V30.2413L1179.65 29.6419V27.6305L1183.37 27.0311V25.0242L1187.1 24.4248V22.4179L1190.83 21.8185V19.8072L1194.56 19.2078V17.2009L1198.29 16.6015V14.5946L1202.01 13.9952V11.9838L1260.36 2.60645V100.523ZM873.353 141.176H869.624V143.782H865.895V146.388H851.22V163.558C851.22 168.422 851.767 172.449 852.723 175.742C853.424 178.013 854.51 179.47 855.905 180.523C857.101 181.27 859.632 182.157 864.478 182.157C865.839 182.157 867.215 182.103 868.606 182.02C868.458 179.599 868.38 177.147 868.38 174.663C868.38 161.811 870.73 149.747 875.486 138.565H873.353V141.176ZM1006.09 139.049L1003.32 137.992L1002.36 141.655L999.587 140.599L998.636 144.262L995.863 143.205L994.907 146.872L992.134 145.816L991.179 149.479L988.406 148.422L987.45 152.085L977.966 148.48C974.606 147.203 970.854 146.058 966.691 145.061C965.086 144.677 963.36 144.372 961.509 144.146C961.235 146.33 961.087 148.675 961.087 151.193C961.087 158.767 962.133 164.843 963.953 169.632L964.602 171.111C966.193 174.393 968.496 176.889 971.611 178.787C975.394 180.809 980.959 182.157 988.89 182.157C993.183 182.157 997.908 181.759 1003.07 180.928C1005.44 180.546 1007.69 180.057 1009.82 179.471V136.438L1007.04 135.382L1006.09 139.049ZM1260.36 167.323C1260.36 167.491 1260.37 167.657 1260.37 167.821C1263.26 164.829 1266.47 162.224 1269.96 159.993C1271.16 159.078 1272.4 158.218 1273.67 157.404C1274.86 156.491 1276.09 155.629 1277.36 154.816C1278.58 153.883 1279.83 153.006 1281.13 152.178C1282.33 151.257 1283.58 150.391 1284.86 149.572C1286.05 148.657 1287.29 147.798 1288.57 146.983C1289.74 146.084 1290.95 145.233 1292.2 144.43C1286.89 145.245 1282.44 146.356 1278.8 147.703L1268.39 151.552L1260.36 100.896V167.323ZM455.451 132.305L452.531 131.297L451.722 134.911L448.802 133.903L448.393 135.719C451.497 137.324 454.304 138.962 456.802 140.634V128.872L456.26 128.69L455.451 132.305Z" fill="#1D1D1D"/>
<path d="M412.836 223.053C400.263 223.053 389.757 221.978 381.315 219.827C373.053 217.676 367.306 215.884 364.073 214.451L370.808 181.921C377.633 184.61 384.638 186.761 391.822 188.374C399.006 189.807 406.101 190.524 413.105 190.524C420.469 190.524 425.677 189.807 428.731 188.374C431.784 186.94 433.311 184.162 433.311 180.04C433.311 177.889 432.413 176.007 430.616 174.394C428.82 172.602 426.126 170.81 422.534 169.017C419.122 167.225 414.722 165.343 409.333 163.372C401.072 160.146 393.798 156.741 387.511 153.156C381.225 149.572 376.376 145.002 372.964 139.446C369.551 133.71 367.845 126.273 367.845 117.132C367.845 108.171 370.09 100.554 374.58 94.2814C379.07 87.8294 385.446 82.9008 393.708 79.4955C401.97 75.9111 411.848 74.1188 423.342 74.1188C431.963 74.1188 440.225 74.9253 448.128 76.5383C456.03 77.9721 462.317 79.5851 466.986 81.3774L459.982 112.562C455.312 110.949 450.193 109.515 444.626 108.261C439.237 107.006 433.131 106.379 426.306 106.379C420.02 106.379 415.26 107.275 412.027 109.067C408.974 110.68 407.448 113.279 407.448 116.864C407.448 118.835 407.986 120.717 409.064 122.509C410.142 124.122 412.207 125.735 415.26 127.348C418.314 128.961 422.804 130.843 428.731 132.994C440.584 137.295 449.655 141.596 455.941 145.898C462.406 150.199 466.896 155.128 469.411 160.684C471.925 166.06 473.183 172.692 473.183 180.577C473.183 189.897 470.848 197.693 466.178 203.966C461.508 210.239 454.683 214.988 445.703 218.214C436.723 221.44 425.767 223.053 412.836 223.053Z" fill="#F5F5F5"/>
<path d="M503.181 219.29V17.1259L543.323 10.6739V128.961C547.274 124.66 551.315 120.179 555.446 115.519C559.577 110.86 563.618 106.289 567.569 101.809C571.7 97.149 575.472 92.758 578.885 88.6359C582.477 84.5138 585.53 80.9293 588.044 77.8825H635.729C629.443 85.0514 623.247 92.0411 617.14 98.8516C611.034 105.662 604.748 112.473 598.282 119.283C591.996 125.914 585.26 132.814 578.076 139.983C583.464 144.822 589.032 150.557 594.78 157.189C600.527 163.82 606.095 170.81 611.483 178.158C616.871 185.506 621.81 192.764 626.3 199.933C630.79 206.923 634.562 213.375 637.615 219.29H591.547C587.775 213.017 583.285 206.027 578.076 198.32C572.868 190.614 567.3 183.086 561.373 175.738C555.446 168.39 549.429 162.297 543.323 157.458V219.29H503.181Z" fill="#F5F5F5"/>
<path d="M717.883 223.053C700.821 223.053 686.722 219.827 675.587 213.375C664.631 206.923 656.459 198.141 651.071 187.029C645.683 175.918 642.988 163.462 642.988 149.661C642.988 132.994 646.221 119.104 652.687 107.992C659.332 96.7009 667.774 88.2775 678.011 82.7215C688.428 76.9864 699.384 74.1188 710.879 74.1188C724.349 74.1188 735.934 76.8968 745.632 82.4527C755.331 87.8294 762.784 95.8944 767.993 106.648C773.381 117.401 776.075 130.753 776.075 146.704C776.075 149.034 775.985 151.633 775.806 154.5C775.626 157.189 775.447 159.608 775.267 161.759H684.208C685.106 170.003 688.967 176.545 695.792 181.384C702.617 186.223 711.777 188.642 723.272 188.642C730.635 188.642 737.819 188.015 744.824 186.761C752.008 185.327 757.845 183.624 762.335 181.653L767.724 214.182C763.413 216.332 756.498 218.304 746.979 220.096C737.64 222.067 727.941 223.053 717.883 223.053ZM684.208 134.338H737.281C737.101 129.857 736.113 125.556 734.317 121.434C732.521 117.312 729.737 113.906 725.966 111.218C722.373 108.53 717.524 107.185 711.418 107.185C705.311 107.185 700.372 108.53 696.6 111.218C693.008 113.727 690.224 117.043 688.249 121.165C686.273 125.287 684.926 129.678 684.208 134.338Z" fill="#F5F5F5"/>
<path d="M861.742 222.516C847.194 222.516 835.789 220.006 827.528 214.988C819.445 209.791 813.788 202.622 810.555 193.481C807.322 184.341 805.706 173.677 805.706 161.49V42.6652L845.847 36.2131V77.8825H894.071V111.218H845.847V160.952C845.847 166.508 846.476 171.437 847.733 175.738C848.99 179.86 851.235 183.086 854.468 185.416C857.701 187.567 862.281 188.642 868.208 188.642C872.518 188.642 876.919 188.284 881.409 187.567C886.078 186.671 890.299 185.506 894.071 184.072L899.728 215.257C894.879 217.228 889.491 218.931 883.564 220.365C877.637 221.799 870.363 222.516 861.742 222.516Z" fill="#F5F5F5"/>
<path d="M988.58 223.053C971.338 223.053 957.239 219.738 946.283 213.106C935.507 206.475 927.514 197.604 922.306 186.492C917.277 175.201 914.763 162.565 914.763 148.586C914.763 134.965 917.636 122.509 923.383 111.218C929.31 99.9269 937.662 90.9658 948.438 84.3345C959.394 77.5241 972.505 74.1188 987.771 74.1188C995.315 74.1188 1002.23 74.8357 1008.52 76.2695C1014.8 77.5241 1020.91 79.4059 1026.84 81.915L1018.48 113.906C1014.71 112.473 1010.58 111.218 1006.09 110.143C1001.6 109.067 996.572 108.53 991.004 108.53C979.151 108.53 970.26 112.204 964.333 119.552C958.586 126.9 955.712 136.578 955.712 148.586C955.712 157.01 956.88 164.268 959.214 170.362C961.549 176.276 965.411 180.846 970.799 184.072C976.367 187.119 983.641 188.642 992.621 188.642C997.47 188.642 1002.68 188.194 1008.25 187.298C1013.81 186.402 1018.93 184.968 1023.6 182.997L1029.26 215.795C1024.59 217.766 1018.75 219.469 1011.75 220.903C1004.74 222.336 997.021 223.053 988.58 223.053Z" fill="#F5F5F5"/>
<path d="M1056.2 219.29V17.1259L1096.34 10.6739V78.4202C1099.04 77.5241 1102.45 76.7176 1106.58 76.0007C1110.89 75.1046 1115.02 74.6565 1118.97 74.6565C1134.42 74.6565 1146.45 77.4345 1155.07 82.9904C1163.69 88.3671 1169.71 95.8944 1173.12 105.572C1176.72 115.251 1178.51 126.542 1178.51 139.446V219.29H1138.37V144.285C1138.37 135.682 1137.65 128.782 1136.21 123.584C1134.78 118.387 1132.35 114.623 1128.94 112.293C1125.71 109.963 1121.04 108.799 1114.93 108.799C1112.6 108.799 1110.26 108.978 1107.93 109.336C1105.77 109.515 1103.71 109.874 1101.73 110.411C1099.93 110.77 1098.14 111.218 1096.34 111.756V219.29H1056.2Z" fill="#F5F5F5"/>
<path d="M1271.42 221.978C1255.97 221.619 1244.12 219.469 1235.86 215.526C1227.78 211.583 1222.21 206.027 1219.16 198.858C1216.28 191.51 1214.85 182.818 1214.85 172.781V17.1259L1254.99 10.6739V164.716C1254.99 171.885 1256.24 177.531 1258.76 181.653C1261.45 185.775 1267.56 188.194 1277.08 188.911L1271.42 221.978Z" fill="#F5F5F5"/>
<path d="M1355.49 222.247C1343.28 222.247 1332.59 220.813 1323.43 217.945C1314.27 214.899 1307.18 209.97 1302.15 203.159C1297.12 196.349 1294.6 187.209 1294.6 175.738C1294.6 164.626 1297.39 155.845 1302.96 149.393C1308.7 142.94 1316.16 138.37 1325.32 135.682C1334.48 132.814 1344.17 131.381 1354.41 131.381C1359.62 131.381 1364.2 131.649 1368.15 132.187C1372.28 132.546 1375.61 133.083 1378.12 133.8V130.036C1378.12 125.377 1377.22 121.434 1375.43 118.208C1373.63 114.802 1370.67 112.204 1366.54 110.411C1362.58 108.44 1357.2 107.454 1350.37 107.454C1343.55 107.454 1336.81 107.992 1330.17 109.067C1323.52 109.963 1317.77 111.308 1312.92 113.1L1307.81 80.8397C1312.47 79.4059 1319.12 77.9721 1327.74 76.5383C1336.54 74.9253 1345.61 74.1188 1354.95 74.1188C1370.76 74.1188 1383.15 76.4487 1392.13 81.1085C1401.11 85.7683 1407.4 92.4892 1410.99 101.271C1414.76 109.874 1416.65 120.09 1416.65 131.918V215.257C1410.9 216.512 1402.91 217.945 1392.67 219.558C1382.43 221.351 1370.04 222.247 1355.49 222.247ZM1358.18 191.331C1362.14 191.331 1365.91 191.241 1369.5 191.062C1373.09 190.883 1375.96 190.614 1378.12 190.255V159.877C1376.5 159.519 1374.08 159.16 1370.85 158.802C1367.61 158.443 1364.65 158.264 1361.96 158.264C1356.93 158.264 1352.35 158.712 1348.22 159.608C1344.09 160.504 1340.76 162.117 1338.25 164.447C1335.73 166.777 1334.48 170.182 1334.48 174.663C1334.48 180.936 1336.54 185.327 1340.67 187.836C1344.98 190.166 1350.82 191.331 1358.18 191.331Z" fill="#F5F5F5"/>
<path d="M1452.94 219.29V82.7215C1459.77 80.7501 1468.57 78.9579 1479.35 77.3449C1490.12 75.5526 1501.44 74.6565 1513.29 74.6565C1529.45 74.6565 1542.03 77.4345 1551.01 82.9904C1559.99 88.3671 1566.27 95.8944 1569.87 105.572C1573.46 115.251 1575.25 126.542 1575.25 139.446V219.29H1535.11V144.285C1535.11 135.682 1534.39 128.782 1532.96 123.584C1531.52 118.387 1529.01 114.623 1525.41 112.293C1522 109.963 1517.15 108.799 1510.87 108.799C1507.99 108.799 1504.94 108.978 1501.71 109.336C1498.47 109.515 1495.6 109.784 1493.08 110.143V219.29H1452.94Z" fill="#F5F5F5"/>
<path d="M1661.7 269.83C1653.08 269.83 1644.46 269.024 1635.83 267.411C1627.21 265.977 1619.22 264.006 1611.86 261.497L1618.86 227.892C1625.15 230.401 1631.7 232.373 1638.53 233.807C1645.53 235.24 1653.44 235.957 1662.24 235.957C1669.96 235.957 1676.07 234.792 1680.56 232.462C1685.23 230.312 1688.55 227.175 1690.52 223.053C1692.68 218.931 1693.76 214.271 1693.76 209.074V203.966C1689.45 205.937 1684.96 207.461 1680.29 208.536C1675.8 209.432 1670.86 209.88 1665.47 209.88C1652.54 209.88 1641.49 207.282 1632.33 202.084C1623.35 196.887 1616.53 189.359 1611.86 179.502C1607.19 169.645 1604.85 157.816 1604.85 144.016C1604.85 130.036 1607.73 117.849 1613.47 107.454C1619.22 97.0594 1627.48 88.9943 1638.26 83.2592C1649.04 77.5241 1661.97 74.6565 1677.05 74.6565C1686.57 74.6565 1696.63 75.463 1707.23 77.076C1717.82 78.689 1726.71 80.5709 1733.9 82.7215V201.546C1733.9 224.666 1727.97 241.782 1716.12 252.894C1704.44 264.185 1686.3 269.83 1661.7 269.83ZM1673.01 177.62C1677.14 177.62 1681 177.082 1684.6 176.007C1688.19 174.932 1691.24 173.677 1693.76 172.243V108.261C1691.78 107.902 1689.45 107.634 1686.75 107.454C1684.06 107.096 1680.91 106.917 1677.32 106.917C1670.32 106.917 1664.48 108.53 1659.81 111.756C1655.14 114.982 1651.64 119.373 1649.3 124.929C1646.97 130.484 1645.8 136.847 1645.8 144.016C1645.8 149.572 1646.34 154.5 1647.42 158.802C1648.68 162.924 1650.38 166.419 1652.54 169.286C1654.87 171.975 1657.75 174.036 1661.16 175.469C1664.57 176.903 1668.52 177.62 1673.01 177.62Z" fill="#F5F5F5"/>
<path d="M1733.9 201.546V82.7215C1727.61 80.8397 1720.02 79.1621 1711.12 77.6919L1707.23 77.076C1696.63 75.463 1686.57 74.6565 1677.05 74.6565C1661.97 74.6565 1649.04 77.5241 1638.26 83.2592L1636.27 84.3609C1626.46 90.0106 1618.86 97.7092 1613.47 107.454C1607.73 117.849 1604.85 130.036 1604.85 144.016L1604.88 146.579C1605.16 159.286 1607.48 170.261 1611.86 179.502C1616.53 189.359 1623.35 196.887 1632.33 202.084C1640.92 206.956 1651.16 209.545 1663.07 209.85L1665.47 209.88C1670.18 209.88 1674.55 209.537 1678.58 208.851L1680.29 208.536C1684.96 207.461 1689.45 205.937 1693.76 203.966V209.074C1693.76 214.271 1692.68 218.931 1690.52 223.053C1688.55 227.175 1685.23 230.312 1680.56 232.462L1679.7 232.885C1675.3 234.933 1669.48 235.957 1662.24 235.957L1662.23 226.864C1669.2 226.864 1673.67 225.786 1676.36 224.391L1676.55 224.293L1676.75 224.205C1679.74 222.824 1681.37 221.098 1682.31 219.125L1682.46 218.841C1682.73 218.309 1682.98 217.754 1683.21 217.18C1682.91 217.251 1682.62 217.33 1682.33 217.398L1682.2 217.429L1682.07 217.451C1676.9 218.483 1671.35 218.974 1665.47 218.974C1651.32 218.974 1638.65 216.125 1627.84 209.992L1627.81 209.97L1627.77 209.952C1617.11 203.781 1609.04 194.824 1603.63 183.392C1598.25 172.041 1595.75 158.816 1595.75 144.017C1595.75 128.773 1598.89 115.019 1605.51 103.058C1612.13 91.079 1621.69 81.7709 1633.98 75.2321C1646.35 68.6497 1660.82 65.5619 1677.05 65.5617C1687.08 65.5617 1697.6 66.4146 1708.6 68.0881C1719.45 69.7403 1728.79 71.6992 1736.51 74.0111L1743 75.9514V201.547C1743 226.035 1736.72 245.971 1722.45 259.423C1708.38 273.03 1687.47 278.924 1661.7 278.924C1652.5 278.924 1643.32 278.063 1634.16 276.348C1625.18 274.845 1616.75 272.771 1608.92 270.101L1601.31 267.508L1612.16 215.427L1622.24 219.449C1628.02 221.755 1634.06 223.573 1640.38 224.902C1646.66 226.184 1653.93 226.864 1662.23 226.864L1662.24 235.957L1658.98 235.922C1651.47 235.765 1644.66 235.061 1638.53 233.807C1631.7 232.373 1625.15 230.401 1618.86 227.892L1611.86 261.497C1619.22 264.006 1627.21 265.977 1635.83 267.411C1643.38 268.822 1650.92 269.614 1658.47 269.79L1661.7 269.83C1686.3 269.83 1704.44 264.185 1716.12 252.894C1727.6 242.129 1733.52 225.729 1733.88 203.696L1733.9 201.546ZM776.075 146.704C776.075 131.75 773.707 119.078 768.971 108.692L767.993 106.648C762.784 95.8944 755.331 87.8294 745.632 82.4527C736.54 77.244 725.79 74.4787 713.382 74.1532L710.879 74.1188C699.384 74.1188 688.428 76.9864 678.011 82.7215L676.113 83.797C666.726 89.3415 658.917 97.4071 652.687 107.992C646.221 119.104 642.988 132.994 642.988 149.661L643.021 152.231C643.337 165.012 646.02 176.612 651.071 187.029C656.459 198.141 664.631 206.923 675.587 213.375C686.026 219.424 699.072 222.637 714.72 223.015L717.883 223.053C727.941 223.053 737.64 222.067 746.979 220.096C755.308 218.528 761.643 216.821 765.985 214.978L767.724 214.182L762.335 181.653C757.845 183.624 752.008 185.327 744.824 186.761L742.19 187.201C736.021 188.162 729.715 188.642 723.272 188.642L723.271 179.551C730.064 179.551 736.663 178.972 743.074 177.833C749.879 176.473 755.01 174.935 758.674 173.326L764.309 170.853H697.543C698.537 171.97 699.702 173.008 701.059 173.97C705.865 177.377 712.976 179.551 723.271 179.551L723.272 188.642L721.142 188.613C711.34 188.348 703.326 186.233 697.099 182.264L695.792 181.384C688.967 176.545 685.106 170.003 684.208 161.759H775.267L775.806 154.5C775.985 151.633 776.075 149.034 776.075 146.704ZM796.605 161.489V34.9165L854.95 25.5391V68.7896H903.174V120.312H854.95V160.952C854.95 165.815 855.496 169.842 856.452 173.135C857.153 175.407 858.239 176.863 859.634 177.917C860.83 178.663 863.361 179.551 868.207 179.551L868.208 188.642L866.047 188.591C861.506 188.372 857.855 187.445 855.092 185.807L854.468 185.416C851.235 183.086 848.99 179.86 847.733 175.738C846.633 171.975 846.012 167.731 845.874 163.007L845.847 160.952V111.218H894.071V77.8825H845.847V36.2131L805.706 42.6652V161.49L805.725 163.758C805.915 175.004 807.524 184.913 810.555 193.481C813.788 202.622 819.445 209.791 827.528 214.988C835.273 219.693 845.781 222.192 859.052 222.486L861.742 222.516C869.285 222.516 875.797 221.968 881.277 220.87L883.564 220.365C888.75 219.11 893.525 217.648 897.886 215.982L899.728 215.257L894.071 184.072C890.299 185.506 886.078 186.671 881.409 187.567L878.06 188.036C874.725 188.439 871.441 188.642 868.208 188.642L868.207 179.551C871.965 179.551 875.835 179.235 879.824 178.605C884.008 177.796 887.666 176.776 890.833 175.573L901.072 171.683L910.001 220.897L903.161 223.681C897.831 225.847 892 227.681 885.704 229.204C878.854 230.861 870.811 231.611 861.74 231.611C846.307 231.61 833.032 228.972 822.8 222.757L822.698 222.699L822.6 222.633C812.804 216.333 805.872 207.533 801.974 196.512C798.322 186.185 796.605 174.454 796.605 161.489ZM1416.65 131.918C1416.65 120.09 1414.76 109.874 1410.99 101.271C1407.62 93.0378 1401.88 86.6178 1393.78 82.0076L1392.13 81.1085C1383.15 76.4487 1370.76 74.1188 1354.95 74.1188C1345.61 74.1188 1336.54 74.9253 1327.74 76.5383L1321.64 77.612C1315.92 78.6872 1311.31 79.7644 1307.81 80.8397L1312.92 113.1C1317.77 111.308 1323.52 109.963 1330.17 109.067C1336.81 107.992 1343.55 107.454 1350.37 107.454L1352.86 107.502C1358.52 107.718 1363.08 108.686 1366.54 110.411C1370.67 112.204 1373.63 114.802 1375.43 118.208C1377.22 121.434 1378.12 125.377 1378.12 130.036V133.8C1375.61 133.083 1372.28 132.546 1368.15 132.187C1365.19 131.784 1361.87 131.531 1358.2 131.43L1354.41 131.381C1344.17 131.381 1334.48 132.814 1325.32 135.682L1323.62 136.207C1315.23 138.948 1308.34 143.344 1302.96 149.393C1297.39 155.845 1294.6 164.626 1294.6 175.738L1294.63 177.864C1294.93 188.343 1297.43 196.775 1302.15 203.159C1307.18 209.97 1314.27 214.899 1323.43 217.945C1332.59 220.813 1343.28 222.247 1355.49 222.247C1370.04 222.247 1382.43 221.351 1392.67 219.558C1402.91 217.945 1410.9 216.512 1416.65 215.257V131.918ZM552.425 105.202C555.238 102.024 558.013 98.8912 560.74 95.7984L560.758 95.7806C564.831 91.1866 568.532 86.8732 571.869 82.8424L572.02 82.6648C575.577 78.5827 578.576 75.0629 581.024 72.0975L583.753 68.7896H655.803L642.577 83.8725C636.269 91.0655 630.049 98.0819 623.92 104.918C617.755 111.794 611.407 118.663 604.885 125.533L604.889 125.538C600.499 130.169 595.892 134.922 591.077 139.804C594.564 143.306 598.09 147.12 601.658 151.237C607.573 158.062 613.298 165.245 618.827 172.784C624.321 180.277 629.371 187.7 633.977 195.051C638.578 202.215 642.498 208.907 645.705 215.12L652.55 228.383H586.397L583.744 223.974C580.073 217.869 575.672 211.015 570.531 203.407C565.468 195.917 560.055 188.594 554.287 181.442C553.667 180.673 553.044 179.923 552.425 179.187V228.383H494.081V9.37737L552.425 0V105.202ZM1047.1 9.37737L1105.45 0V66.9559C1110.05 66.0425 1114.56 65.5617 1118.97 65.5617C1135.34 65.5619 1149.35 68.4785 1160.01 75.3476C1170.34 81.8252 1177.63 90.9921 1181.71 102.552C1185.72 113.425 1187.61 125.779 1187.61 139.444V228.383H1129.27V144.284C1129.27 136.076 1128.57 130.088 1127.44 126.004C1126.4 122.236 1124.96 120.589 1123.8 119.801L1123.71 119.735L1123.61 119.668C1122.56 118.907 1120.08 117.892 1114.93 117.892C1113.06 117.892 1111.19 118.034 1109.31 118.323L1109 118.372L1108.68 118.398C1107.55 118.493 1106.47 118.653 1105.45 118.869V228.383H1047.1V9.37737ZM1443.84 75.8848L1450.42 73.9845C1456.86 72.1249 1464.73 70.468 1473.96 68.9805L1478 68.3501C1489.26 66.4855 1501.03 65.5617 1513.29 65.5617C1530.26 65.5617 1544.71 68.4422 1555.68 75.1922C1555.7 75.1993 1555.71 75.2072 1555.72 75.2144C1555.75 75.2297 1555.77 75.2434 1555.8 75.2588C1566.47 81.6795 1574.09 90.8052 1578.4 102.41C1582.45 113.317 1584.35 125.721 1584.35 139.444V228.383H1526.01V144.284C1526.01 136.076 1525.31 130.088 1524.18 126.004C1523.18 122.375 1521.74 120.75 1520.46 119.921L1520.37 119.863L1520.28 119.801C1518.98 118.914 1516.21 117.892 1510.87 117.892C1508.37 117.892 1505.65 118.05 1502.71 118.376L1502.46 118.403L1502.21 118.416C1502.2 118.416 1502.2 118.416 1502.19 118.416V228.383H1443.84V75.8848ZM1334.48 174.663C1334.48 170.463 1335.58 167.209 1337.79 164.899L1338.25 164.447C1340.45 162.409 1343.27 160.92 1346.71 159.979L1348.22 159.608C1352.35 158.712 1356.93 158.264 1361.96 158.264L1364.03 158.296C1366.15 158.364 1368.42 158.533 1370.85 158.802C1374.08 159.16 1376.5 159.519 1378.12 159.877V190.255C1375.96 190.614 1373.09 190.883 1369.5 191.062L1366.77 191.179C1364.01 191.28 1361.15 191.331 1358.18 191.331L1358.19 182.237C1361.99 182.237 1365.6 182.15 1369.02 181.98V167.754C1366.39 167.486 1364.04 167.359 1361.95 167.359C1357.46 167.359 1353.54 167.76 1350.15 168.495C1347.24 169.126 1345.51 170.123 1344.44 171.115C1344.31 171.236 1343.58 171.893 1343.58 174.662C1343.58 178.402 1344.56 179.48 1345.2 179.928C1347.69 181.22 1351.8 182.237 1358.19 182.237L1358.18 191.331L1355.49 191.277C1349.38 191.022 1344.44 189.874 1340.67 187.836C1336.54 185.327 1334.48 180.936 1334.48 174.663ZM358.744 117.133C358.744 106.592 361.409 97.0471 367.175 88.9918C372.789 80.9683 380.625 75.0511 390.236 71.0896C399.876 66.9381 410.997 65.0245 423.342 65.0245C432.461 65.0245 441.269 65.8746 449.749 67.5908C457.919 69.0731 464.831 70.8078 470.251 72.8878L477.588 75.7072L466.633 124.481L457.007 121.156C452.7 119.668 447.909 118.324 442.621 117.133L442.559 117.115C437.984 116.05 432.589 115.472 426.306 115.472C420.79 115.472 417.87 116.283 416.564 116.96C416.572 117.096 416.59 117.256 416.68 117.466C416.755 117.535 416.865 117.637 417.026 117.763C417.527 118.154 418.324 118.679 419.515 119.308C422.013 120.628 426.041 122.342 431.839 124.446C443.953 128.841 453.798 133.432 460.984 138.33L462.371 139.28C469.173 144.07 474.475 149.868 477.655 156.836C480.885 163.745 482.286 171.778 482.286 180.577C482.286 191.464 479.531 201.267 473.482 209.393C467.529 217.389 459.076 223.074 448.785 226.771C438.535 230.453 426.469 232.148 412.835 232.148C399.809 232.148 388.489 231.04 379.068 228.64L379.019 228.627C370.76 226.477 364.363 224.528 360.38 222.761L353.674 219.787L364.086 169.499L374.148 173.464C380.504 175.967 387.027 177.967 393.721 179.475C400.305 180.782 406.764 181.429 413.107 181.429L413.105 190.524L410.476 190.491C405.205 190.357 399.883 189.82 394.512 188.88L391.822 188.374C384.638 186.761 377.633 184.61 370.808 181.921L364.073 214.451C367.306 215.884 373.053 217.676 381.315 219.827C388.701 221.709 397.67 222.766 408.218 223.001L412.836 223.053C424.958 223.053 435.344 221.636 443.994 218.801L445.703 218.214C454.121 215.19 460.648 210.827 465.278 205.126L466.178 203.966C470.556 198.086 472.883 190.866 473.157 182.308L473.183 180.577C473.183 172.692 471.925 166.06 469.411 160.684C466.896 155.128 462.406 150.199 455.941 145.898C450.44 142.134 442.807 138.368 433.043 134.604L428.731 132.994C423.544 131.112 419.457 129.437 416.471 127.967L415.26 127.348C412.207 125.735 410.142 124.122 409.064 122.509C408.121 120.941 407.589 119.304 407.471 117.599L407.448 116.864C407.448 113.279 408.974 110.68 412.027 109.067C415.26 107.275 420.02 106.379 426.306 106.379L428.83 106.41C434.645 106.547 439.911 107.163 444.626 108.261C450.193 109.515 455.312 110.949 459.982 112.562L466.986 81.3774C462.317 79.5851 456.03 77.9721 448.128 76.5383C440.225 74.9253 431.963 74.1188 423.342 74.1188C411.848 74.1188 401.97 75.9111 393.708 79.4955C385.446 82.9008 379.07 87.8294 374.58 94.2814C370.09 100.554 367.845 108.171 367.845 117.132L367.864 118.824C368.064 127.194 369.765 134.069 372.964 139.446C376.376 145.002 381.225 149.572 387.511 153.156C393.798 156.741 401.072 160.146 409.333 163.372C414.722 165.343 419.122 167.225 422.534 169.017C426.126 170.81 428.82 172.602 430.616 174.394L431.248 175.013C432.622 176.483 433.31 178.158 433.311 180.04C433.311 184.162 431.784 186.94 428.731 188.374L428.133 188.635C425.018 189.895 420.007 190.524 413.105 190.524L413.107 181.429C418.777 181.429 422.105 180.944 423.804 180.492C422.875 179.678 421.216 178.525 418.466 177.153L418.297 177.065C415.369 175.527 411.376 173.802 406.205 171.91L406.111 171.879L406.018 171.843C397.433 168.491 389.746 164.9 383.001 161.054C375.534 156.796 369.504 151.196 365.206 144.199L365.171 144.146L365.14 144.093C360.637 136.525 358.745 127.328 358.744 117.133ZM955.712 148.586C955.712 136.578 958.586 126.9 964.333 119.552C970.26 112.204 979.151 108.53 991.004 108.53L993.068 108.555C997.821 108.672 1002.16 109.202 1006.09 110.143C1010.58 111.218 1014.71 112.473 1018.48 113.906L1026.84 81.915C1021.65 79.7193 1016.32 78.0033 1010.86 76.7684L1008.52 76.2695C1002.23 74.8357 995.315 74.1188 987.771 74.1188C972.505 74.1188 959.394 77.5241 948.438 84.3345L946.448 85.6041C936.628 92.094 928.94 100.632 923.383 111.218L922.338 113.35C917.287 124.071 914.763 135.817 914.763 148.586L914.792 151.192C915.086 164.14 917.591 175.907 922.306 186.492C927.514 197.604 935.507 206.475 946.283 213.106C956.554 219.323 969.588 222.626 985.384 223.015L988.58 223.053C997.021 223.053 1004.74 222.336 1011.75 220.903C1017.88 219.648 1023.11 218.189 1027.45 216.523L1029.26 215.795L1023.6 182.997C1018.93 184.968 1013.81 186.402 1008.25 187.298L1006.17 187.614C1001.38 188.3 996.864 188.642 992.621 188.642L992.619 179.551C996.913 179.551 1001.64 179.152 1006.8 178.321C1011.73 177.528 1016.13 176.28 1020.06 174.623L1030.63 170.16L1039.46 221.363L1032.8 224.169C1027.41 226.447 1020.95 228.303 1013.57 229.812C1005.87 231.389 997.527 232.148 988.579 232.148C970.232 232.148 954.357 228.624 941.568 220.883L941.537 220.866L941.51 220.848C929.272 213.317 920.048 203.117 914.063 190.349L913.992 190.189C908.38 177.591 905.659 163.672 905.659 148.586C905.659 133.643 908.826 119.761 915.271 107.098L915.298 107.045L915.325 106.996C922.005 94.271 931.485 84.0863 943.666 76.5908C956.303 68.7459 971.136 65.0246 987.771 65.0245C995.789 65.0245 1003.31 65.7807 1010.29 67.351C1017.19 68.7271 1023.89 70.7915 1030.39 73.5405L1037.63 76.6085L1024.73 126.008L1015.24 122.403C1011.89 121.126 1008.13 119.981 1003.97 118.984C1000.3 118.105 995.999 117.621 991.006 117.621C981.176 117.621 975.236 120.563 971.465 125.205C967.313 130.541 964.816 138.053 964.816 148.586C964.816 156.161 965.862 162.236 967.682 167.026L968.331 168.504C969.922 171.787 972.224 174.283 975.34 176.181C979.124 178.203 984.688 179.551 992.619 179.551L992.621 188.642L990.957 188.626C982.738 188.448 976.019 186.929 970.799 184.072C965.749 181.048 962.037 176.843 959.67 171.457L959.214 170.362C957.172 165.03 956.023 158.805 955.767 151.69L955.712 148.586ZM1645.8 144.016C1645.8 137.744 1646.7 132.089 1648.48 127.052L1649.3 124.929C1651.49 119.72 1654.71 115.534 1658.95 112.373L1659.81 111.756C1664.48 108.53 1670.32 106.917 1677.32 106.917C1680.91 106.917 1684.06 107.096 1686.75 107.454L1688.7 107.604C1690.59 107.773 1692.27 107.992 1693.76 108.261V172.243C1691.24 173.677 1688.19 174.932 1684.6 176.007L1683.24 176.385C1680.04 177.209 1676.63 177.62 1673.01 177.62L1673.01 168.526C1676.35 168.526 1679.32 168.094 1681.98 167.296C1682.95 167.009 1683.83 166.704 1684.66 166.404V116.365C1682.63 116.141 1680.2 116.009 1677.32 116.009C1671.73 116.009 1667.81 117.282 1664.99 119.233C1661.84 121.41 1659.4 124.389 1657.7 128.451C1655.91 132.701 1654.91 137.833 1654.91 144.017C1654.91 148.907 1655.37 153.003 1656.2 156.387C1657.15 159.429 1658.33 161.769 1659.63 163.562C1660.98 165.042 1662.62 166.219 1664.69 167.088C1666.77 167.963 1669.48 168.526 1673.01 168.526L1673.01 177.62C1669.08 177.62 1665.57 177.07 1662.47 175.972L1661.16 175.469C1657.75 174.036 1654.87 171.975 1652.54 169.286C1650.38 166.419 1648.68 162.924 1647.42 158.802C1646.48 155.038 1645.94 150.793 1645.83 146.069L1645.8 144.016ZM713.649 107.249C718.717 107.543 722.823 108.866 725.966 111.218C729.737 113.906 732.521 117.312 734.317 121.434C736.113 125.556 737.101 129.857 737.281 134.338H684.208C684.836 130.26 685.948 126.389 687.539 122.723L688.249 121.165C689.977 117.559 692.324 114.567 695.29 112.195L696.6 111.218C700.372 108.53 705.311 107.185 711.418 107.185L713.649 107.249ZM711.418 116.28C706.609 116.28 703.69 117.334 701.885 118.62L701.85 118.647L701.814 118.669C699.565 120.24 697.788 122.321 696.459 125.094C696.435 125.144 696.411 125.195 696.388 125.245H726.049C726.023 125.184 725.999 125.123 725.973 125.063C724.856 122.498 723.15 120.381 720.68 118.62L720.595 118.558L720.507 118.496C718.969 117.346 716.255 116.28 711.418 116.28ZM785.175 146.704C785.175 149.26 785.079 152.053 784.89 155.069L784.886 155.104C784.704 157.831 784.524 160.303 784.339 162.515L783.642 170.853H769.771L777.802 219.316L771.789 222.317C766.299 225.056 758.353 227.207 748.665 229.031L748.661 229.026C738.733 231.107 728.47 232.148 717.884 232.148C699.724 232.148 683.923 228.719 671.02 221.243L670.966 221.207C658.513 213.873 649.073 203.767 642.879 190.993C636.824 178.507 633.888 164.671 633.888 149.661C633.888 131.854 637.338 116.275 644.817 103.422L644.843 103.382C652.219 90.8506 661.803 81.1699 673.669 74.7304C685.368 68.2995 697.813 65.0245 710.88 65.0245C725.563 65.0247 738.736 68.0526 750.043 74.4995C761.511 80.8573 770.226 90.3843 776.184 102.685C782.341 115.024 785.175 129.83 785.175 146.704ZM1425.75 222.579L1418.59 224.142C1412.58 225.453 1404.39 226.919 1394.09 228.542L1394.08 228.538C1383.2 230.43 1370.3 231.34 1355.49 231.34C1342.59 231.34 1330.95 229.831 1320.71 226.624L1320.56 226.571C1309.87 223.018 1301.12 217.082 1294.82 208.558C1290.47 202.662 1287.79 195.7 1286.48 187.943L1279.07 231.251L1271.21 231.069C1255.24 230.698 1241.89 228.481 1231.94 223.729L1231.9 223.716L1231.87 223.698C1222.14 218.951 1214.82 211.905 1210.78 202.417L1210.73 202.293L1210.68 202.169C1207.29 193.522 1205.74 183.654 1205.74 172.78V9.37737L1264.09 0V164.717C1264.09 170.805 1265.16 174.548 1266.43 176.74C1266.81 177.187 1269.14 179.194 1277.76 179.844L1285.63 180.435C1285.54 178.894 1285.5 177.326 1285.5 175.737C1285.5 163.122 1288.68 152.004 1296.06 143.453L1296.11 143.4L1296.16 143.347C1303.12 135.532 1312.05 130.126 1322.6 127.003L1324.49 126.43C1334.02 123.655 1344.01 122.288 1354.41 122.288C1359.21 122.288 1363.63 122.497 1367.64 122.954C1367.58 122.843 1367.53 122.734 1367.47 122.63L1367.42 122.536L1367.37 122.448C1366.7 121.172 1365.48 119.867 1362.91 118.753L1362.69 118.656L1362.47 118.545C1360.28 117.454 1356.48 116.547 1350.37 116.547C1344.03 116.547 1337.78 117.047 1331.62 118.043L1331.38 118.079C1325.22 118.91 1320.15 120.122 1316.08 121.626L1305.67 125.476L1297.58 74.4684L1305.13 72.1463C1309.06 70.9387 1314.05 69.7895 1319.99 68.6742L1326.24 67.5686C1335.56 65.8699 1345.14 65.0245 1354.95 65.0245C1371.47 65.0245 1385.52 67.4325 1396.33 73.0387C1407.02 78.5859 1414.85 86.812 1419.33 97.6233L1420.12 99.5192C1423.96 109.079 1425.75 119.947 1425.75 131.918V222.579ZM1452.94 219.29H1493.08V110.143C1495.6 109.784 1498.47 109.515 1501.71 109.336C1504.94 108.978 1507.99 108.799 1510.87 108.799L1513.16 108.852C1518.34 109.107 1522.43 110.255 1525.41 112.293C1529.01 114.623 1531.52 118.387 1532.96 123.584C1534.39 128.782 1535.11 135.682 1535.11 144.285V219.29H1575.25V139.446C1575.25 126.542 1573.46 115.251 1569.87 105.572C1566.5 96.5005 1560.76 89.3157 1552.66 84.0234L1551.01 82.9904C1542.03 77.4345 1529.45 74.6565 1513.29 74.6565C1501.44 74.6565 1490.12 75.5526 1479.35 77.3449L1475.4 77.9583C1466.4 79.409 1458.92 80.9964 1452.94 82.7215V219.29ZM503.181 219.29H543.323V157.458C549.429 162.297 555.446 168.39 561.373 175.738C567.3 183.086 572.868 190.614 578.076 198.32C581.983 204.1 585.485 209.476 588.583 214.45L591.547 219.29H637.615C634.562 213.375 630.79 206.923 626.3 199.933C622.933 194.557 619.312 189.131 615.44 183.654L611.483 178.158C606.768 171.728 601.915 165.572 596.925 159.691L594.78 157.189C589.032 150.557 583.464 144.822 578.076 139.983C585.26 132.814 591.996 125.914 598.282 119.283C603.131 114.176 607.878 109.067 612.525 103.959L617.14 98.8516C623.247 92.0411 629.443 85.0514 635.729 77.8825H588.044C585.53 80.9293 582.477 84.5138 578.885 88.6359C575.472 92.758 571.7 97.149 567.569 101.809C563.618 106.289 559.577 110.86 555.446 115.519L549.318 122.377C547.298 124.617 545.298 126.811 543.323 128.961V10.6739L503.181 17.1259V219.29ZM1056.2 219.29H1096.34V111.756C1098.14 111.218 1099.93 110.77 1101.73 110.411C1103.71 109.874 1105.77 109.515 1107.93 109.336C1110.26 108.978 1112.6 108.799 1114.93 108.799L1117.16 108.852C1122.18 109.107 1126.11 110.255 1128.94 112.293C1132.35 114.623 1134.78 118.387 1136.21 123.584C1137.65 128.782 1138.37 135.682 1138.37 144.285V219.29H1178.51V139.446C1178.51 126.542 1176.72 115.251 1173.12 105.572C1169.71 95.8944 1163.69 88.3671 1155.07 82.9904C1146.99 77.7815 1135.91 75.0158 1121.83 74.6904L1118.97 74.6565C1115.02 74.6565 1110.89 75.1046 1106.58 76.0007C1102.45 76.7176 1099.04 77.5241 1096.34 78.4202V10.6739L1056.2 17.1259V219.29ZM1214.85 172.781C1214.85 182.818 1216.28 191.51 1219.16 198.858C1222.21 206.027 1227.78 211.583 1235.86 215.526C1243.6 219.222 1254.51 221.345 1268.57 221.891L1271.42 221.978L1277.08 188.911C1267.56 188.194 1261.45 185.775 1258.76 181.653C1256.56 178.046 1255.32 173.272 1255.04 167.332L1254.99 164.716V10.6739L1214.85 17.1259V172.781Z" fill="#1D1D1D"/>
</svg>
